<svg width="238" height="238" viewBox="0 0 238 238" fill="none" xmlns="http://www.w3.org/2000/svg">
<g id="Account">
<circle id="Ellipse 4" cx="119" cy="119" r="119" fill="#D9D9D9"/>
<path id="icon" opacity="0.7" d="M76.5186 153.95C82.6153 149.288 89.4293 145.612 96.9605 142.922C104.492 140.233 112.382 138.888 120.63 138.888C128.879 138.888 136.768 140.233 144.3 142.922C151.831 145.612 158.645 149.288 164.742 153.95C168.926 149.049 172.183 143.49 174.514 137.274C176.845 131.058 178.011 124.423 178.011 117.37C178.011 101.471 172.422 87.9323 161.245 76.755C150.068 65.5777 136.529 59.989 120.63 59.989C104.731 59.989 91.1925 65.5777 80.0152 76.755C68.8379 87.9323 63.2493 101.471 63.2493 117.37C63.2493 124.423 64.4148 131.058 66.7459 137.274C69.077 143.49 72.3346 149.049 76.5186 153.95ZM120.63 124.542C113.577 124.542 107.63 122.122 102.788 117.28C97.9467 112.439 95.526 106.491 95.526 99.4384C95.526 92.3853 97.9467 86.438 102.788 81.5965C107.63 76.755 113.577 74.3343 120.63 74.3343C127.683 74.3343 133.63 76.755 138.472 81.5965C143.313 86.438 145.734 92.3853 145.734 99.4384C145.734 106.491 143.313 112.439 138.472 117.28C133.63 122.122 127.683 124.542 120.63 124.542ZM120.63 189.096C110.708 189.096 101.384 187.213 92.6569 183.447C83.9303 179.682 76.3393 174.571 69.8839 168.116C63.4286 161.661 58.3181 154.07 54.5525 145.343C50.7869 136.616 48.9041 127.292 48.9041 117.37C48.9041 107.448 50.7869 98.1234 54.5525 89.3967C58.3181 80.6701 63.4286 73.0791 69.8839 66.6237C76.3393 60.1684 83.9303 55.0579 92.6569 51.2923C101.384 47.5267 110.708 45.6438 120.63 45.6438C130.552 45.6438 139.877 47.5267 148.603 51.2923C157.33 55.0579 164.921 60.1684 171.376 66.6237C177.832 73.0791 182.942 80.6701 186.708 89.3967C190.473 98.1234 192.356 107.448 192.356 117.37C192.356 127.292 190.473 136.616 186.708 145.343C182.942 154.07 177.832 161.661 171.376 168.116C164.921 174.571 157.33 179.682 148.603 183.447C139.877 187.213 130.552 189.096 120.63 189.096Z" fill="#1D1B20"/>
<circle id="Ellipse 5" cx="178" cy="165" r="35" fill="#BEBEBE"/>
<path id="icon_2" opacity="0.75" d="M161.556 181.444H164.801L187.067 159.179L183.821 155.933L161.556 178.199V181.444ZM157 186V176.319L187.067 146.31C187.522 145.892 188.025 145.569 188.576 145.342C189.126 145.114 189.705 145 190.312 145C190.92 145 191.508 145.114 192.078 145.342C192.647 145.569 193.141 145.911 193.558 146.367L196.69 149.556C197.146 149.973 197.478 150.467 197.687 151.036C197.896 151.606 198 152.175 198 152.744C198 153.352 197.896 153.931 197.687 154.481C197.478 155.032 197.146 155.535 196.69 155.99L166.681 186H157ZM185.415 157.585L183.821 155.933L187.067 159.179L185.415 157.585Z" fill="#1D1B20"/>
</g>
</svg>
