<svg width="81" height="81" viewBox="0 0 81 81" fill="none" xmlns="http://www.w3.org/2000/svg">
<circle cx="40.5" cy="40.5" r="40.5" fill="#D9D9D9"/>
<path opacity="0.7" d="M11 61V54.0625C11 52.6458 11.3483 51.3333 12.0448 50.125C12.7413 48.9167 13.7042 48 14.9333 47.375C15.5069 47.0833 16.0601 46.8125 16.5927 46.5625C17.1663 46.3125 17.7604 46.0833 18.375 45.875V61H11ZM20.8333 43.5C18.7847 43.5 17.0434 42.7708 15.6094 41.3125C14.1753 39.8542 13.4583 38.0833 13.4583 36C13.4583 33.9167 14.1753 32.1458 15.6094 30.6875C17.0434 29.2292 18.7847 28.5 20.8333 28.5C22.8819 28.5 24.6233 29.2292 26.0573 30.6875C27.4913 32.1458 28.2083 33.9167 28.2083 36C28.2083 38.0833 27.4913 39.8542 26.0573 41.3125C24.6233 42.7708 22.8819 43.5 20.8333 43.5ZM20.8333 38.5C21.5299 38.5 22.1035 38.2708 22.5542 37.8125C23.0458 37.3125 23.2917 36.7083 23.2917 36C23.2917 35.2917 23.0458 34.7083 22.5542 34.25C22.1035 33.75 21.5299 33.5 20.8333 33.5C20.1368 33.5 19.5427 33.75 19.051 34.25C18.6003 34.7083 18.375 35.2917 18.375 36C18.375 36.7083 18.6003 37.3125 19.051 37.8125C19.5427 38.2708 20.1368 38.5 20.8333 38.5ZM20.8333 61V54C20.8333 52.5833 21.1816 51.2917 21.8781 50.125C22.6156 48.9167 23.5785 48 24.7667 47.375C27.3069 46.0833 29.8882 45.125 32.5104 44.5C35.1326 43.8333 37.7958 43.5 40.5 43.5C43.2042 43.5 45.8674 43.8333 48.4896 44.5C51.1118 45.125 53.6931 46.0833 56.2333 47.375C57.4215 48 58.3639 48.9167 59.0604 50.125C59.7979 51.2917 60.1667 52.5833 60.1667 54V61H20.8333ZM25.75 56H55.25V54C55.25 53.5417 55.1271 53.125 54.8812 52.75C54.6764 52.375 54.3896 52.0833 54.0208 51.875C51.8083 50.75 49.5753 49.9167 47.3219 49.375C45.0684 48.7917 42.7944 48.5 40.5 48.5C38.2056 48.5 35.9316 48.7917 33.6781 49.375C31.4247 49.9167 29.1917 50.75 26.9792 51.875C26.6104 52.0833 26.3031 52.375 26.0573 52.75C25.8524 53.125 25.75 53.5417 25.75 54V56ZM40.5 41C37.7958 41 35.4809 40.0208 33.5552 38.0625C31.6295 36.1042 30.6667 33.75 30.6667 31C30.6667 28.25 31.6295 25.8958 33.5552 23.9375C35.4809 21.9792 37.7958 21 40.5 21C43.2042 21 45.5191 21.9792 47.4448 23.9375C49.3705 25.8958 50.3333 28.25 50.3333 31C50.3333 33.75 49.3705 36.1042 47.4448 38.0625C45.5191 40.0208 43.2042 41 40.5 41ZM40.5 36C41.8521 36 42.9993 35.5208 43.9417 34.5625C44.925 33.5625 45.4167 32.375 45.4167 31C45.4167 29.625 44.925 28.4583 43.9417 27.5C42.9993 26.5 41.8521 26 40.5 26C39.1479 26 37.9802 26.5 36.9969 27.5C36.0545 28.4583 35.5833 29.625 35.5833 31C35.5833 32.375 36.0545 33.5625 36.9969 34.5625C37.9802 35.5208 39.1479 36 40.5 36ZM60.1667 43.5C58.1181 43.5 56.3767 42.7708 54.9427 41.3125C53.5087 39.8542 52.7917 38.0833 52.7917 36C52.7917 33.9167 53.5087 32.1458 54.9427 30.6875C56.3767 29.2292 58.1181 28.5 60.1667 28.5C62.2153 28.5 63.9566 29.2292 65.3906 30.6875C66.8247 32.1458 67.5417 33.9167 67.5417 36C67.5417 38.0833 66.8247 39.8542 65.3906 41.3125C63.9566 42.7708 62.2153 43.5 60.1667 43.5ZM60.1667 38.5C60.8632 38.5 61.4368 38.2708 61.8875 37.8125C62.3792 37.3125 62.625 36.7083 62.625 36C62.625 35.2917 62.3792 34.7083 61.8875 34.25C61.4368 33.75 60.8632 33.5 60.1667 33.5C59.4701 33.5 58.876 33.75 58.3844 34.25C57.9337 34.7083 57.7083 35.2917 57.7083 36C57.7083 36.7083 57.9337 37.3125 58.3844 37.8125C58.876 38.2708 59.4701 38.5 60.1667 38.5ZM62.625 61V45.875C63.2396 46.0833 63.8132 46.3125 64.3458 46.5625C64.9194 46.8125 65.4931 47.0833 66.0667 47.375C67.2958 48 68.2587 48.9167 68.9552 50.125C69.6517 51.3333 70 52.6458 70 54.0625V61H62.625Z" fill="#6291F7" fill-opacity="0.92"/>
</svg>
