<svg width="59" height="40" viewBox="0 0 59 40" fill="none" xmlns="http://www.w3.org/2000/svg">
<path id="icon" opacity="0.7" d="M0 40V33.0625C0 31.6458 0.348264 30.3333 1.04479 29.125C1.74132 27.9167 2.70417 27 3.93333 26.375C4.50694 26.0833 5.06007 25.8125 5.59271 25.5625C6.16632 25.3125 6.76042 25.0833 7.375 24.875V40H0ZM9.83333 22.5C7.78472 22.5 6.0434 21.7708 4.60938 20.3125C3.17535 18.8542 2.45833 17.0833 2.45833 15C2.45833 12.9167 3.17535 11.1458 4.60938 9.6875C6.0434 8.22917 7.78472 7.5 9.83333 7.5C11.8819 7.5 13.6233 8.22917 15.0573 9.6875C16.4913 11.1458 17.2083 12.9167 17.2083 15C17.2083 17.0833 16.4913 18.8542 15.0573 20.3125C13.6233 21.7708 11.8819 22.5 9.83333 22.5ZM9.83333 17.5C10.5299 17.5 11.1035 17.2708 11.5542 16.8125C12.0458 16.3125 12.2917 15.7083 12.2917 15C12.2917 14.2917 12.0458 13.7083 11.5542 13.25C11.1035 12.75 10.5299 12.5 9.83333 12.5C9.13681 12.5 8.54271 12.75 8.05104 13.25C7.60035 13.7083 7.375 14.2917 7.375 15C7.375 15.7083 7.60035 16.3125 8.05104 16.8125C8.54271 17.2708 9.13681 17.5 9.83333 17.5ZM9.83333 40V33C9.83333 31.5833 10.1816 30.2917 10.8781 29.125C11.6156 27.9167 12.5785 27 13.7667 26.375C16.3069 25.0833 18.8882 24.125 21.5104 23.5C24.1326 22.8333 26.7958 22.5 29.5 22.5C32.2042 22.5 34.8674 22.8333 37.4896 23.5C40.1118 24.125 42.6931 25.0833 45.2333 26.375C46.4215 27 47.3639 27.9167 48.0604 29.125C48.7979 30.2917 49.1667 31.5833 49.1667 33V40H9.83333ZM14.75 35H44.25V33C44.25 32.5417 44.1271 32.125 43.8812 31.75C43.6764 31.375 43.3896 31.0833 43.0208 30.875C40.8083 29.75 38.5753 28.9167 36.3219 28.375C34.0684 27.7917 31.7944 27.5 29.5 27.5C27.2056 27.5 24.9316 27.7917 22.6781 28.375C20.4247 28.9167 18.1917 29.75 15.9792 30.875C15.6104 31.0833 15.3031 31.375 15.0573 31.75C14.8524 32.125 14.75 32.5417 14.75 33V35ZM29.5 20C26.7958 20 24.4809 19.0208 22.5552 17.0625C20.6295 15.1042 19.6667 12.75 19.6667 10C19.6667 7.25 20.6295 4.89583 22.5552 2.9375C24.4809 0.979167 26.7958 0 29.5 0C32.2042 0 34.5191 0.979167 36.4448 2.9375C38.3705 4.89583 39.3333 7.25 39.3333 10C39.3333 12.75 38.3705 15.1042 36.4448 17.0625C34.5191 19.0208 32.2042 20 29.5 20ZM29.5 15C30.8521 15 31.9993 14.5208 32.9417 13.5625C33.925 12.5625 34.4167 11.375 34.4167 10C34.4167 8.625 33.925 7.45833 32.9417 6.5C31.9993 5.5 30.8521 5 29.5 5C28.1479 5 26.9802 5.5 25.9969 6.5C25.0545 7.45833 24.5833 8.625 24.5833 10C24.5833 11.375 25.0545 12.5625 25.9969 13.5625C26.9802 14.5208 28.1479 15 29.5 15ZM49.1667 22.5C47.1181 22.5 45.3767 21.7708 43.9427 20.3125C42.5087 18.8542 41.7917 17.0833 41.7917 15C41.7917 12.9167 42.5087 11.1458 43.9427 9.6875C45.3767 8.22917 47.1181 7.5 49.1667 7.5C51.2153 7.5 52.9566 8.22917 54.3906 9.6875C55.8247 11.1458 56.5417 12.9167 56.5417 15C56.5417 17.0833 55.8247 18.8542 54.3906 20.3125C52.9566 21.7708 51.2153 22.5 49.1667 22.5ZM49.1667 17.5C49.8632 17.5 50.4368 17.2708 50.8875 16.8125C51.3792 16.3125 51.625 15.7083 51.625 15C51.625 14.2917 51.3792 13.7083 50.8875 13.25C50.4368 12.75 49.8632 12.5 49.1667 12.5C48.4701 12.5 47.876 12.75 47.3844 13.25C46.9337 13.7083 46.7083 14.2917 46.7083 15C46.7083 15.7083 46.9337 16.3125 47.3844 16.8125C47.876 17.2708 48.4701 17.5 49.1667 17.5ZM51.625 40V24.875C52.2396 25.0833 52.8132 25.3125 53.3458 25.5625C53.9194 25.8125 54.4931 26.0833 55.0667 26.375C56.2958 27 57.2587 27.9167 57.9552 29.125C58.6517 30.3333 59 31.6458 59 33.0625V40H51.625Z" fill="#6291F7" fill-opacity="0.92"/>
</svg>
