<svg width="73" height="73" viewBox="0 0 73 73" fill="none" xmlns="http://www.w3.org/2000/svg">
<g id="Account">
<circle id="Ellipse 4" cx="36.5" cy="36.5" r="36.5" fill="#D9D9D9"/>
<path id="icon" opacity="0.7" d="M23.47 47.22C25.34 45.79 27.43 44.6625 29.74 43.8375C32.05 43.0125 34.47 42.6 37 42.6C39.53 42.6 41.95 43.0125 44.26 43.8375C46.57 44.6625 48.66 45.79 50.53 47.22C51.8133 45.7167 52.8125 44.0117 53.5275 42.105C54.2425 40.1983 54.6 38.1633 54.6 36C54.6 31.1233 52.8858 26.9708 49.4575 23.5425C46.0292 20.1142 41.8767 18.4 37 18.4C32.1233 18.4 27.9708 20.1142 24.5425 23.5425C21.1142 26.9708 19.4 31.1233 19.4 36C19.4 38.1633 19.7575 40.1983 20.4725 42.105C21.1875 44.0117 22.1867 45.7167 23.47 47.22ZM37 38.2C34.8367 38.2 33.0125 37.4575 31.5275 35.9725C30.0425 34.4875 29.3 32.6633 29.3 30.5C29.3 28.3367 30.0425 26.5125 31.5275 25.0275C33.0125 23.5425 34.8367 22.8 37 22.8C39.1633 22.8 40.9875 23.5425 42.4725 25.0275C43.9575 26.5125 44.7 28.3367 44.7 30.5C44.7 32.6633 43.9575 34.4875 42.4725 35.9725C40.9875 37.4575 39.1633 38.2 37 38.2ZM37 58C33.9567 58 31.0967 57.4225 28.42 56.2675C25.7433 55.1125 23.415 53.545 21.435 51.565C19.455 49.585 17.8875 47.2567 16.7325 44.58C15.5775 41.9033 15 39.0433 15 36C15 32.9567 15.5775 30.0967 16.7325 27.42C17.8875 24.7433 19.455 22.415 21.435 20.435C23.415 18.455 25.7433 16.8875 28.42 15.7325C31.0967 14.5775 33.9567 14 37 14C40.0433 14 42.9033 14.5775 45.58 15.7325C48.2567 16.8875 50.585 18.455 52.565 20.435C54.545 22.415 56.1125 24.7433 57.2675 27.42C58.4225 30.0967 59 32.9567 59 36C59 39.0433 58.4225 41.9033 57.2675 44.58C56.1125 47.2567 54.545 49.585 52.565 51.565C50.585 53.545 48.2567 55.1125 45.58 56.2675C42.9033 57.4225 40.0433 58 37 58Z" fill="#1D1B20"/>
</g>
</svg>
