<svg width="81" height="81" viewBox="0 0 81 81" fill="none" xmlns="http://www.w3.org/2000/svg">
<g id="Browse">
<circle id="Ellipse 1" cx="40.5" cy="40.5" r="40.5" fill="#D9D9D9"/>
<path id="icon" opacity="0.7" d="M56.8889 61L42.8889 47C41.7778 47.8889 40.5 48.5926 39.0556 49.1111C37.6111 49.6296 36.0741 49.8889 34.4444 49.8889C30.4074 49.8889 26.9907 48.4907 24.1944 45.6944C21.3981 42.8981 20 39.4815 20 35.4444C20 31.4074 21.3981 27.9907 24.1944 25.1944C26.9907 22.3981 30.4074 21 34.4444 21C38.4815 21 41.8981 22.3981 44.6944 25.1944C47.4907 27.9907 48.8889 31.4074 48.8889 35.4444C48.8889 37.0741 48.6296 38.6111 48.1111 40.0556C47.5926 41.5 46.8889 42.7778 46 43.8889L60 57.8889L56.8889 61ZM34.4444 45.4444C37.2222 45.4444 39.5833 44.4722 41.5278 42.5278C43.4722 40.5833 44.4444 38.2222 44.4444 35.4444C44.4444 32.6667 43.4722 30.3056 41.5278 28.3611C39.5833 26.4167 37.2222 25.4444 34.4444 25.4444C31.6667 25.4444 29.3056 26.4167 27.3611 28.3611C25.4167 30.3056 24.4444 32.6667 24.4444 35.4444C24.4444 38.2222 25.4167 40.5833 27.3611 42.5278C29.3056 44.4722 31.6667 45.4444 34.4444 45.4444Z" fill="#1D1B20"/>
</g>
</svg>
