<svg width="81" height="81" viewBox="0 0 81 81" fill="none" xmlns="http://www.w3.org/2000/svg">
<g id="Map button">
<path id="Ellipse 2" d="M81 40.5C81 62.8675 62.8675 81 40.5 81C18.1325 81 0 62.8675 0 40.5C0 18.1325 18.1325 0 40.5 0C62.8675 0 81 18.1325 81 40.5Z" fill="#D9D9D9"/>
<path id="icon" opacity="0.7" d="M40 61C39.5333 61 39.1333 60.8667 38.8 60.6C38.4667 60.3333 38.2167 59.9833 38.05 59.55C37.4167 57.6833 36.6167 55.9333 35.65 54.3C34.7167 52.6667 33.4 50.75 31.7 48.55C30 46.35 28.6167 44.25 27.55 42.25C26.5167 40.25 26 37.8333 26 35C26 31.1 27.35 27.8 30.05 25.1C32.7833 22.3667 36.1 21 40 21C43.9 21 47.2 22.3667 49.9 25.1C52.6333 27.8 54 31.1 54 35C54 38.0333 53.4167 40.5667 52.25 42.6C51.1167 44.6 49.8 46.5833 48.3 48.55C46.5 50.95 45.1333 52.95 44.2 54.55C43.3 56.1167 42.55 57.7833 41.95 59.55C41.7833 60.0167 41.5167 60.3833 41.15 60.65C40.8167 60.8833 40.4333 61 40 61ZM40 40C41.4 40 42.5833 39.5167 43.55 38.55C44.5167 37.5833 45 36.4 45 35C45 33.6 44.5167 32.4167 43.55 31.45C42.5833 30.4833 41.4 30 40 30C38.6 30 37.4167 30.4833 36.45 31.45C35.4833 32.4167 35 33.6 35 35C35 36.4 35.4833 37.5833 36.45 38.55C37.4167 39.5167 38.6 40 40 40Z" fill="#1D1B20"/>
</g>
</svg>
